<svg xmlns="http://www.w3.org/2000/svg" width="42.825" height="30.446" viewBox="0 0 42.825 30.446"><defs><style>.a{fill:#1c88d0;}</style></defs><g transform="translate(0 -74)"><g transform="translate(0 74)"><path d="M38.643,74H4.182A4.187,4.187,0,0,0,0,78.182v22.082a4.187,4.187,0,0,0,4.182,4.182H17.147a.836.836,0,0,0,0-1.673H4.182a2.512,2.512,0,0,1-2.509-2.509v-10.2H19.852a2.54,2.54,0,0,0,1.137,1.657,2.569,2.569,0,0,0,.617.284l-1.473,2.533a.836.836,0,0,0,.94,1.228l2-.538.536,2a.836.836,0,0,0,1.532.2l3.813-6.605,4.778,8.494a.836.836,0,0,0,1.537-.194l.536-2,2,.538a.836.836,0,0,0,.944-1.221L36.3,92.1c.078.007.156.012.233.012a2.559,2.559,0,0,0,2.5-2.056h2.119v10.2a2.512,2.512,0,0,1-2.509,2.509H30.279V98.256a.836.836,0,0,0-1.673,0v4.517H24.259a.836.836,0,1,0,0,1.673H38.643a4.187,4.187,0,0,0,4.182-4.182V78.182A4.187,4.187,0,0,0,38.643,74ZM21.885,90.3a.866.866,0,0,1-.409-.744V83.7h0a.881.881,0,0,1,1.257-.8l4.1,1.936a2.542,2.542,0,0,0-.157.881v1.789a2.539,2.539,0,0,0,.167.907l-4.114,1.941A.866.866,0,0,1,21.885,90.3Zm2.821,4.539-.23-.86a.836.836,0,0,0-1.025-.592l-.851.229,1.082-1.861,3.855-1.819ZM23.447,81.389A2.554,2.554,0,0,0,19.8,83.7v4.688H1.673v-10.2a2.512,2.512,0,0,1,2.509-2.509H28.606v7.165a.831.831,0,0,0,.094.383,2.539,2.539,0,0,0-.751.291Zm6.217,7h-.429a.882.882,0,0,1-.881-.881V85.719a.882.882,0,0,1,.881-.881h.429a.882.882,0,0,1,.881.881v1.789A.882.882,0,0,1,29.663,88.39Zm6.651,7.135-.88-.236a.836.836,0,0,0-1.025.592l-.222.829-3.8-6.752a2.537,2.537,0,0,0,.524-.222L33.8,91.1ZM37,90.3a.865.865,0,0,1-.848.053l-4.1-1.936a2.541,2.541,0,0,0,.169-.912V85.719a2.542,2.542,0,0,0-.159-.886L36.152,82.9a.881.881,0,0,1,1.257.8v5.86h0A.866.866,0,0,1,37,90.3Zm4.153-1.917h-2.07V83.7a2.554,2.554,0,0,0-3.644-2.31l-4.5,2.121a2.536,2.536,0,0,0-.756-.291.832.832,0,0,0,.092-.381V75.673h8.364a2.512,2.512,0,0,1,2.509,2.509v10.2Z" transform="translate(0 -74)"/></g><g transform="translate(19.802 102.773)"><path class="a" d="M238.178,418.245a.836.836,0,1,0,.245.591A.843.843,0,0,0,238.178,418.245Z" transform="translate(-236.75 -418)"/></g><g transform="translate(4.517 78.517)"><g transform="translate(0 0)"><path class="a" d="M67.174,128H54.836a.836.836,0,0,0,0,1.673H67.174a.836.836,0,0,0,0-1.673Z" transform="translate(-54 -128)"/></g></g><g transform="translate(4.517 97.42)"><path class="a" d="M67.174,354H54.836a.836.836,0,0,0,0,1.673H67.174a.836.836,0,0,0,0-1.673Z" transform="translate(-54 -354)"/></g><g transform="translate(4.517 83.033)"><path class="a" d="M60.022,182H54.836a.836.836,0,0,0,0,1.673h5.186a.836.836,0,0,0,0-1.673Z" transform="translate(-54 -182)"/></g><g transform="translate(12.939 83.033)"><path class="a" d="M156.118,182.245a.836.836,0,1,0,.245.591A.843.843,0,0,0,156.118,182.245Z" transform="translate(-154.69 -182)"/></g></g></svg>