<svg xmlns="http://www.w3.org/2000/svg" width="52" height="52" viewBox="0 0 52 52"><defs><style>.a{fill:#1c88d0;}</style></defs><g transform="translate(0.001 0.001)"><path d="M49.835,34.185l-3.71-.527a.85.85,0,0,1-.573-.345l-2.765-3.872a4.191,4.191,0,0,0-3.419-1.763H36.057a12.888,12.888,0,0,0,5.878-10.853v-.542l3.948-3.948L44.7,11.148,41.934,13.91v-.815l-2.953.981a3.593,3.593,0,0,1-3.6-.847l-.158-.157V0H10.555L0,10.555V52H35.224V43.612h1.762a4.193,4.193,0,0,0,8.218,0h4.278A2.519,2.519,0,0,0,52,41.1v-4.42a2.514,2.514,0,0,0-2.164-2.491ZM39.515,15.666l.742-.247v.167l-5.871,5.871-1.923-1.923-1.186,1.186,3.109,3.109,5.8-5.8a11.216,11.216,0,0,1-5.8,8.7,11.231,11.231,0,0,1-5.871-9.907v-1.4l.737.245A5.287,5.287,0,0,0,34.386,14.6a5.3,5.3,0,0,0,5.129,1.07ZM10.063,2.862v7.2h-7.2ZM33.547,50.322H1.676V11.741H11.741V1.676H33.547V13.071l-.157.157a3.579,3.579,0,0,1-3.6.845l-2.948-.979v3.728a12.888,12.888,0,0,0,5.878,10.853H28.632a4.184,4.184,0,0,0-3.492,1.868l-2.021,3.035a.848.848,0,0,1-.457.34L16.049,34.9a2.515,2.515,0,0,0-1.793,2.413V41.1a2.519,2.519,0,0,0,2.516,2.516h4.278a4.193,4.193,0,0,0,8.218,0h4.278Zm-10.9-7.548a2.516,2.516,0,1,1,2.516,2.516A2.519,2.519,0,0,1,22.644,42.773ZM41.1,45.289a2.516,2.516,0,1,1,2.516-2.516A2.519,2.519,0,0,1,41.1,45.289ZM50.321,41.1a.84.84,0,0,1-.839.839H45.2a4.193,4.193,0,0,0-8.218,0H29.269a4.193,4.193,0,0,0-8.218,0H16.773a.84.84,0,0,1-.839-.839V37.313a.845.845,0,0,1,.6-.807l6.617-1.982a2.511,2.511,0,0,0,1.364-1.016l2.021-3.035a2.512,2.512,0,0,1,2.1-1.12H39.368a2.512,2.512,0,0,1,2.052,1.058l2.766,3.873a2.546,2.546,0,0,0,1.7,1.032l3.707.527a.845.845,0,0,1,.731.832Zm0,0"/><path d="M232,400h1.677v1.677H232Zm0,0" transform="translate(-207.679 -358.065)"/><path d="M384,400h1.677v1.677H384Zm0,0" transform="translate(-343.743 -358.065)"/><path d="M245.571,296l-2.516,5.032h16.972L257.511,296Zm.2,3.355.839-1.677h9.866l.839,1.677Zm0,0" transform="translate(-217.575 -264.969)"/><path class="a" d="M146.452,32H128v8.387h18.452Zm-1.677,6.71h-15.1V33.677h15.1Zm0,0" transform="translate(-114.582 -28.646)"/><path class="a" d="M208,64h1.677v1.677H208Zm0,0" transform="translate(-186.195 -57.291)"/><path class="a" d="M240,64h1.677v1.677H240Zm0,0" transform="translate(-214.84 -57.291)"/><path class="a" d="M176,64h1.677v1.677H176Zm0,0" transform="translate(-157.55 -57.291)"/><path class="a" d="M32,128H51.29v1.677H32Zm0,0" transform="translate(-28.646 -114.582)"/><path class="a" d="M32,192H51.29v1.677H32Zm0,0" transform="translate(-28.646 -171.872)"/><path class="a" d="M144,160h7.548v1.677H144Zm0,0" transform="translate(-128.904 -143.227)"/><path class="a" d="M32,160H42.065v1.677H32Zm0,0" transform="translate(-28.646 -143.227)"/><path class="a" d="M32,224H51.29v1.677H32Zm0,0" transform="translate(-28.646 -200.517)"/><path class="a" d="M32,256H51.29v1.677H32Zm0,0" transform="translate(-28.646 -229.162)"/><path d="M44.72,418.181c-.4-.921-.954-2.181-2.236-2.181s-1.835,1.262-2.237,2.184c-.139.32-.511,1.171-.69,1.171s-.553-.826-.708-1.179c-.4-.919-.955-2.176-2.235-2.176s-1.833,1.26-2.236,2.181c-.154.351-.514,1.174-.7,1.174H32v1.677h1.677c1.282,0,1.833-1.26,2.236-2.181.154-.351.514-1.174.7-1.174s.545.821.7,1.172c.4.922.959,2.183,2.245,2.183s1.827-1.258,2.228-2.177c.154-.352.513-1.177.7-1.177s.545.823.7,1.174c.4.921.954,2.181,2.236,2.181H47.1v-1.677H45.419c-.186,0-.545-.823-.7-1.174Zm0,0" transform="translate(-28.646 -372.388)"/><path d="M192,448h1.677v1.677H192Zm0,0" transform="translate(-171.872 -401.033)"/></g></svg>