<svg xmlns="http://www.w3.org/2000/svg" width="43.194" height="43.701" viewBox="0 0 43.194 43.701"><defs><style>.a{fill:#1c88d0;}</style></defs><g transform="translate(0 0)"><path d="M138.246,168h1.41v1.41h-1.41Zm0,0" transform="translate(-126.066 -153.198)"/><path d="M282.246,168h1.41v1.41h-1.41Zm0,0" transform="translate(-257.378 -153.198)"/><path d="M41.06,14.421l-3.5-.874v-.865a3.528,3.528,0,0,0,1.41-2.814V8.458h2.115V7.049H38.965A3.515,3.515,0,0,0,36.145,3.6V2.115A2.062,2.062,0,0,0,35.53.63,2.069,2.069,0,0,0,34.031,0a2.117,2.117,0,0,0-2.115,2.115V9.868a3.527,3.527,0,0,0,1.41,2.814v.865l-3.508.875a2.833,2.833,0,0,0-.806.35,3.534,3.534,0,0,0-.626-1.38h.007a2.125,2.125,0,0,0,2.115-2.115,2.117,2.117,0,0,0-2.115-2.115h-1.46l-.348-1.918A2.819,2.819,0,0,0,23.81,4.934H14.647a2.819,2.819,0,0,0-2.773,2.314l-.348,1.916H10.066a2.117,2.117,0,0,0-2.115,2.115,2.126,2.126,0,0,0,2.115,2.115h.007a3.522,3.522,0,0,0-.712,2.115v2.115a1.411,1.411,0,0,0,1.41,1.41h.7v1.41H6.541V2.115A2.062,2.062,0,0,0,5.926.63,2.069,2.069,0,0,0,4.427,0,2.117,2.117,0,0,0,2.312,2.115V39.472H1.057L0,43.7H8.854L7.8,39.472H6.541V26.08H30.506V43.7h9.868V23.965h1.41a1.411,1.411,0,0,0,1.41-1.41v-5.4a2.826,2.826,0,0,0-2.134-2.735Zm-3.5-4.553a2.115,2.115,0,0,1-4.229,0V8.458h4.229Zm0-2.819H33.326a2.115,2.115,0,1,1,4.229,0ZM34.031,1.41a.69.69,0,0,1,.5.216.674.674,0,0,1,.2.489V3.6a3.5,3.5,0,0,0-1.41.651V2.115a.706.706,0,0,1,.7-.7ZM30.163,15.789l4.573-1.141V13.312a3.138,3.138,0,0,0,1.41,0v1.335l4.569,1.14a1.415,1.415,0,0,1,1.07,1.369v2.58h-1.41V16.917h-1.41v2.819h-1.41V16.917H33.326v2.819h-1.41V16.917h-1.41v2.819H29.1v-2.58a1.414,1.414,0,0,1,1.066-1.367Zm5.276,4.5a2.054,2.054,0,0,0-.7-.425V18.326h1.41v1.537a2.007,2.007,0,0,0-.706.426ZM29.1,22.556v-1.41h4.934a.69.69,0,0,1,.5.216.674.674,0,0,1,.2.489.706.706,0,0,1-.7.7Zm-1.41-5.4v.465H23.656l1.057-4.229h.859a2.141,2.141,0,0,1,1.006.254l.065.034a2.131,2.131,0,0,1,1.044,1.826Zm-5.484.465H16.255L15.2,13.392H23.26Zm-5.793,1.41h5.639v1.41H16.409Zm7.049,0h2.115v1.41H23.458Zm3.524,0h.7v1.41h-.7Zm1.41-8.458a.706.706,0,0,1,.7.7.688.688,0,0,1-.215.5.68.68,0,0,1-.489.2h-.948l-.256-1.41ZM13.261,7.5a1.41,1.41,0,0,1,1.386-1.157H23.81A1.409,1.409,0,0,1,25.2,7.5l.82,4.515a3.464,3.464,0,0,0-.444-.031H12.885a3.536,3.536,0,0,0-.44.03Zm-3.7,4.266a.674.674,0,0,1-.2-.489.706.706,0,0,1,.7-.7h1.2l-.256,1.41h-.949a.69.69,0,0,1-.5-.216Zm1.207,3.74a2.131,2.131,0,0,1,1.021-1.813l.087-.047a2.133,2.133,0,0,1,1.006-.255h.859L14.8,17.622H10.77Zm2.115,3.524H15v1.41H12.885ZM7.048,42.292H1.806l.352-1.41H6.7ZM3.722,39.472V2.115a.706.706,0,0,1,.7-.7.69.69,0,0,1,.5.216.674.674,0,0,1,.2.489V39.472Zm2.819-14.8V21.851H27.687v.7a1.411,1.411,0,0,0,1.41,1.41h1.41v.7ZM31.916,27.49h2.819v14.8H31.916Zm4.229,14.8V27.49h2.819v14.8ZM38.965,26.08H31.916V23.965h2.115a2.1,2.1,0,0,0,1.41-.55,2.1,2.1,0,0,0,1.41.55h2.115ZM36.85,22.556a.706.706,0,0,1-.7-.7.689.689,0,0,1,.216-.5.68.68,0,0,1,.489-.2h4.934v1.41Zm0,0"/><path class="a" d="M155.616,357.846l1,1,.911-.911v.413a4.934,4.934,0,1,1-4.934-4.934V352a6.344,6.344,0,1,0,6.344,6.344v-.413l.912.911,1-1-2.613-2.613Zm0,0" transform="translate(-133.361 -320.986)"/><path class="a" d="M183.206,338.3l-1.616-1.616-1,1,2.613,2.613,8.957-8.957-1-1Zm0,0" transform="translate(-164.682 -301.239)"/></g></svg>