<svg xmlns="http://www.w3.org/2000/svg" width="52" height="52" viewBox="0 0 52 52"><defs><style>.a{fill:#1c88d0;}</style></defs><path d="M114.516,360a2.516,2.516,0,1,0,2.516,2.516A2.519,2.519,0,0,0,114.516,360Zm0,3.355a.839.839,0,1,1,.839-.839A.84.84,0,0,1,114.516,363.355Zm0,0" transform="translate(-100.258 -322.258)"/><path d="M338.516,360a2.516,2.516,0,1,0,2.516,2.516A2.519,2.519,0,0,0,338.516,360Zm0,3.355a.839.839,0,1,1,.839-.839A.84.84,0,0,1,338.516,363.355Zm0,0" transform="translate(-300.774 -322.258)"/><path class="a" d="M140.284,80.249a2.468,2.468,0,0,0,.748-1.783,3.6,3.6,0,0,0-.6-2L138.516,73.6,136.6,76.466a3.594,3.594,0,0,0-.6,2,2.519,2.519,0,0,0,2.516,2.516,2.45,2.45,0,0,0,1.768-.733Zm-2.607-1.783A1.921,1.921,0,0,1,138,77.4l.519-.777.518.776a1.92,1.92,0,0,1,.32,1.069.819.819,0,0,1-.257.6.808.808,0,0,1-.582.241A.84.84,0,0,1,137.677,78.466Zm0,0" transform="translate(-121.742 -65.885)"/><path class="a" d="M89.531,91.067l2.751-3.774,1.356.988-2.751,3.774Zm0,0" transform="translate(-80.145 -78.141)"/><path class="a" d="M191.289,88.273l1.356-.988,2.751,3.774-1.356.988Zm0,0" transform="translate(-171.234 -78.134)"/><path class="a" d="M300.284,80.249a2.468,2.468,0,0,0,.748-1.783,3.6,3.6,0,0,0-.6-2L298.516,73.6,296.6,76.466a3.594,3.594,0,0,0-.6,2,2.519,2.519,0,0,0,2.516,2.516,2.45,2.45,0,0,0,1.768-.733Zm-2.607-1.783A1.921,1.921,0,0,1,298,77.4l.519-.777.518.776a1.92,1.92,0,0,1,.32,1.069.819.819,0,0,1-.257.6.808.808,0,0,1-.582.241A.84.84,0,0,1,297.677,78.466Zm0,0" transform="translate(-264.967 -65.885)"/><path class="a" d="M249.531,91.071l2.751-3.774,1.356.988-2.751,3.774Zm0,0" transform="translate(-223.371 -78.145)"/><path class="a" d="M351.285,88.273l1.356-.988,2.75,3.774-1.356.988Zm0,0" transform="translate(-314.457 -78.134)"/><path d="M56,240h1.677v1.677H56Zm0,0" transform="translate(-50.129 -214.839)"/><path d="M32,312h1.677v1.677H32Zm0,0" transform="translate(-28.645 -279.29)"/><path d="M424,240h1.677v1.677H424Zm0,0" transform="translate(-379.548 -214.839)"/><path d="M8.387,0V5.032h6.741L13.059,7.878l1.357.986L16.774,5.62l2.358,3.243,1.357-.986L18.421,5.032H31.9L29.833,7.878l1.357.986L33.548,5.62l2.358,3.243,1.357-.986L35.195,5.032H44.1L46.968,7.9V21.322a4.186,4.186,0,0,0-5.8,3.09,3.316,3.316,0,0,0-1.188.557,4.188,4.188,0,0,0-4.919-5.556,3.343,3.343,0,0,0-5.236,4.071H27.21a3.311,3.311,0,0,0,.467-1.677,3.358,3.358,0,0,0-3.355-3.355,3.252,3.252,0,0,0-1.344.29,4.129,4.129,0,0,0-2.85-1.128,4.2,4.2,0,0,0-3.415,1.771,3.3,3.3,0,0,0-.779-.094,3.348,3.348,0,0,0-1.926,6.092,5.794,5.794,0,0,0-.811,1.109,3.365,3.365,0,0,0-2.361-2.078,4.194,4.194,0,0,0-8.254,0,3.355,3.355,0,0,0,.772,6.621H6.71v3.355A2.519,2.519,0,0,0,9.226,36.9h.216a5.853,5.853,0,0,0-1.055,3.355v3.356A1.683,1.683,0,0,0,6.71,45.29v1.677A1.683,1.683,0,0,0,8.4,48.645h.831v.839A2.519,2.519,0,0,0,11.742,52H15.1a2.519,2.519,0,0,0,2.516-2.516v-.839H34.387v.839A2.519,2.519,0,0,0,36.9,52h3.355a2.519,2.519,0,0,0,2.516-2.516v-.839H43.6a1.683,1.683,0,0,0,1.686-1.677V45.29a1.683,1.683,0,0,0-1.677-1.677V40.258A5.857,5.857,0,0,0,42.559,36.9h.215a2.519,2.519,0,0,0,2.516-2.516V31.032h1.677V52H52V0Zm1.677,1.677H50.323V3.355H10.065ZM46.476,5.032h3.846V24.783a3.322,3.322,0,0,0-.908-.371,4.225,4.225,0,0,0-.77-1.745V7.2ZM41.936,43.613H10.065V40.258a4.178,4.178,0,0,1,1.883-3.5,2.271,2.271,0,0,1,.254-.155,4.138,4.138,0,0,1,2.057-.543h2.723l1.677,5.871H33.343l1.677-5.871h2.722a4.191,4.191,0,0,1,2.1.567,2.062,2.062,0,0,1,.213.133,4.177,4.177,0,0,1,1.881,3.494ZM16.142,34.387,17.3,29.181a.84.84,0,0,1,.818-.665H33.884a.839.839,0,0,1,.817.66l1.157,5.211Zm17.133,1.677-1.2,4.194H19.923l-1.2-4.194Zm4.467-1.677h-.166l-1.238-5.579a2.511,2.511,0,0,0-2.453-1.969H18.116a2.512,2.512,0,0,0-2.454,1.974l-1.238,5.574h-.166a5.935,5.935,0,0,0-1.334.16l1.3-6.073a4.159,4.159,0,0,1,1.79-2.617,4.267,4.267,0,0,1,2.313-.7H33.674a4.209,4.209,0,0,1,4.1,3.312l1.3,6.076a5.822,5.822,0,0,0-1.333-.163Zm-6.71-12.581a1.677,1.677,0,0,1,3.06-.948l.382.551.622-.251a2.579,2.579,0,0,1,.969-.19,2.512,2.512,0,0,1,1.79,4.278,5.883,5.883,0,0,0-4.18-1.762H32.71A1.679,1.679,0,0,1,31.032,21.806ZM16.7,21.161l.781.4.364-.8a2.516,2.516,0,0,1,2.281-1.472,2.488,2.488,0,0,1,2.011,1.021l.506.679.674-.512a1.658,1.658,0,0,1,1-.35,1.677,1.677,0,0,1,0,3.355h-6a5.9,5.9,0,0,0-2.866.768A1.674,1.674,0,1,1,16.7,21.161ZM3.355,29.355a1.677,1.677,0,1,1,0-3.355h.839v-.839a2.516,2.516,0,0,1,5.032,0V26h.839a1.677,1.677,0,1,1,0,3.355Zm8.76.959-.153.719h-1.9a3.323,3.323,0,0,0,2.05-.719ZM8.387,34.387V32.71H11.6l-.538,2.516H9.226a.84.84,0,0,1-.839-.839Zm7.548,15.1a.84.84,0,0,1-.839.839H11.742a.84.84,0,0,1-.839-.839v-.839h5.032Zm25.161,0a.84.84,0,0,1-.839.839H36.9a.84.84,0,0,1-.839-.839v-.839H41.1ZM43.6,46.968H8.387L8.4,45.29H43.613Zm.008-12.581a.84.84,0,0,1-.839.839H40.936L40.4,32.71h3.215Zm-3.574-3.355-.153-.718a3.325,3.325,0,0,0,2.05.718Zm1.9-1.677a1.677,1.677,0,0,1,0-3.355h.839v-.839a2.516,2.516,0,0,1,5.032,0V26h.839a1.677,1.677,0,1,1,0,3.355Zm6.71,20.968V31.032a3.318,3.318,0,0,0,1.677-.466V50.323Zm0,0"/><path class="a" d="M256,160h1.677v1.677H256Zm0,0" transform="translate(-229.161 -143.226)"/><path class="a" d="M96,160h1.677v1.677H96Zm0,0" transform="translate(-85.935 -143.226)"/><path class="a" d="M392,160h1.677v1.677H392Zm0,0" transform="translate(-350.903 -143.226)"/></svg>