<svg xmlns="http://www.w3.org/2000/svg" width="14.074" height="14.074" viewBox="0 0 14.074 14.074"><defs><style>.a{fill:#fff;}</style></defs><g transform="translate(0 0)"><g transform="translate(9.921 8.285)"><path class="a" d="M364.707,303.493l-1.749-1.75a1.267,1.267,0,0,0-1.75,0l-.292.292,3.5,3.5.292-.292A1.236,1.236,0,0,0,364.707,303.493Z" transform="translate(-360.917 -301.393)"/></g><g transform="translate(0 1.249)"><g transform="translate(0)"><path class="a" d="M9.322,53.688a.928.928,0,0,1-1.229-.063L4.634,50.163a.928.928,0,0,1-.063-1.23L1.08,45.443a4.452,4.452,0,0,0,.214,6.046l5.473,5.475a4.427,4.427,0,0,0,6.046.214Z" transform="translate(0 -45.443)"/></g></g><g transform="translate(1.639 0)"><g transform="translate(0 0)"><path class="a" d="M63.4,2.1,61.653.35a1.267,1.267,0,0,0-1.75,0l-.292.292,3.5,3.5.292-.292A1.236,1.236,0,0,0,63.4,2.1Z" transform="translate(-59.612 0)"/></g></g></g></svg>