<svg xmlns="http://www.w3.org/2000/svg" width="45.158" height="43.701" viewBox="0 0 45.158 43.701"><defs><style>.a{fill:#1c88d0;}.b{fill:#2a9ae5;}</style></defs><g transform="translate(0 0)"><path class="a" d="M13.111,289.382a8.9,8.9,0,0,0-8.74,0,8.743,8.743,0,1,0,8.74,0Zm-.122,13.477-.7-1.222-1.262.728.7,1.22a7.3,7.3,0,0,1-2.258.589v-1.393H8.012v1.393a7.273,7.273,0,0,1-2.258-.589l.7-1.22L5.2,301.637l-.7,1.222A7.22,7.22,0,0,1,2.835,301.2l1.222-.7-.728-1.262-1.222.705a7.244,7.244,0,0,1-.6-2.259H2.914v-1.457H1.5a7.244,7.244,0,0,1,.6-2.259l1.222.705.728-1.262-1.222-.7a7.234,7.234,0,0,1,1.656-1.656l.7,1.222,1.262-.728-.705-1.222a7.253,7.253,0,0,1,2.259-.6v1.409H9.469v-1.409a7.244,7.244,0,0,1,2.259.6l-.705,1.222,1.262.728.7-1.222a7.22,7.22,0,0,1,1.656,1.656l-1.222.7.728,1.262,1.222-.705a7.248,7.248,0,0,1,.6,2.259H14.567v1.457h1.409a7.243,7.243,0,0,1-.6,2.259l-1.222-.705-.728,1.262,1.222.7a7.22,7.22,0,0,1-1.656,1.656Zm0,0" transform="translate(0 -261.993)"/><path class="b" d="M59.642,344a3.642,3.642,0,1,0,3.642,3.642A3.646,3.646,0,0,0,59.642,344Zm0,5.827a2.185,2.185,0,1,1,2.185-2.185A2.188,2.188,0,0,1,59.642,349.827Zm0,0" transform="translate(-50.901 -312.681)"/><path class="b" d="M88,376h1.457v1.457H88Zm0,0" transform="translate(-79.988 -341.768)"/><path d="M45.133,21.785c-.017-.169-.043-.338-.076-.507l-1.384-6.926a5.173,5.173,0,0,0-3.523-3.9,4.355,4.355,0,0,0,1.367-3.166V4.37a4.37,4.37,0,1,0-8.74,0H30.591V5.827h2.185V7.283a4.373,4.373,0,0,0,2.879,4.1l-6.6,6.6L22.4,16.917l-2.535-5.708,3.569-5.764a8.366,8.366,0,0,1,7.16-3.989V0a9.813,9.813,0,0,0-8.4,4.679L15.86,14.9,5.1,4.71a6.169,6.169,0,0,0-4.37-1.8H0V29.386l1.262-1.359a10.1,10.1,0,0,1,7.478-3.264A10.175,10.175,0,0,1,18.6,32.347a10.09,10.09,0,0,1,.339,2.614v2.185H34.8l-.464,2.329a.186.186,0,0,1-.095.129l-2.024,1.013a1.614,1.614,0,0,0-.9,1.452A1.633,1.633,0,0,0,32.951,43.7H43.7a1.458,1.458,0,0,0,1.457-1.457V22.287a4.873,4.873,0,0,0-.026-.5ZM36,38.6l.32-1.6a1.47,1.47,0,0,0,.83-1.33l-.218-7.276a2.179,2.179,0,0,0-1.238-1.976V24.747a21.226,21.226,0,0,0,2.419-.218,60.19,60.19,0,0,1,1.223,12.048V38.6Zm3.545-14.334a21.506,21.506,0,0,0,4.092-1.284l.069-.029V38.6H40.788V36.578a61.516,61.516,0,0,0-1.247-12.309Zm2.7-9.631L43.6,21.416l-.542.231a20.09,20.09,0,0,1-4.506,1.337,19.7,19.7,0,0,1-3.017.3,6.619,6.619,0,0,0-.325-1.093,6.254,6.254,0,0,0-.9-1.569l5.662-5.662a2.805,2.805,0,0,0,.819-1.972,2.775,2.775,0,0,0-.09-.666,3.7,3.7,0,0,1,1.546,2.318Zm-8.012,9.995v1.443l-6.555-1.192V23.307h6.375a5.062,5.062,0,0,1,.155.817,4.515,4.515,0,0,1,.025.509Zm4.15-12.919a1.286,1.286,0,0,1,.557.331,1.322,1.322,0,0,1,.391.942,1.343,1.343,0,0,1-.391.942l-5.657,5.657a6.438,6.438,0,0,0-2.492-1.275l6.266-6.266a1.3,1.3,0,0,1,1.326-.331ZM37.146,1.457A2.9,2.9,0,0,1,40.06,4.37H34.233a2.916,2.916,0,0,1,2.913-2.913ZM34.233,7.283V5.827H40.06V7.283a2.913,2.913,0,1,1-5.827,0Zm-15.3,5.426,1.748,3.934-3.592-.575-.149-.14ZM4.1,5.766,14.926,16.024h-2.3L9.948,14.015,2.825,6.892a3.654,3.654,0,0,0-1.368-.857V4.424A4.835,4.835,0,0,1,4.1,5.766ZM2.914,14.931a2.54,2.54,0,0,0,.03.364H1.457V7.652a2.22,2.22,0,0,1,.337.27l4.46,4.46H5.463a2.552,2.552,0,0,0-2.549,2.549Zm2.549-1.093H7.711l1.243,1.243,1.25.942H5.463a1.1,1.1,0,0,1-.777-.322.787.787,0,0,1-.1-.117,1.092,1.092,0,0,1,.876-1.746ZM1.457,25.865V16.752H3.679a2.535,2.535,0,0,0,1.784.728h6.174a18.274,18.274,0,0,1-1.24,5.957,11.889,11.889,0,0,0-1.656-.131,11.7,11.7,0,0,0-7.284,2.558Zm10.389-2.139a19.736,19.736,0,0,0,1.248-6.246h3.6L29.938,19.6a5.033,5.033,0,0,1,2.849,1.486,5.1,5.1,0,0,1,.617.767H26.221V26.1l8.63,1.568a.735.735,0,0,1,.621.744l.086,2.906H19.808a11.747,11.747,0,0,0-7.962-7.593Zm8.342,9.05H35.6l.087,2.913h-15.3v-.728a11.685,11.685,0,0,0-.206-2.185Zm12.588,9.294a.168.168,0,0,1,.092-.149l2.025-1.013a1.621,1.621,0,0,0,.774-.848H38.43l-1.115.558a1.615,1.615,0,0,0-.9,1.452v.175H32.951a.169.169,0,0,1-.175-.175Zm5.1.175v-.175a.168.168,0,0,1,.092-.149l1.922-.962a1.61,1.61,0,0,0,.79-.9H43.7v2.185H37.875Zm0,0" transform="translate(0)"/></g></svg>