<svg xmlns="http://www.w3.org/2000/svg" width="14.074" height="12.85" viewBox="0 0 14.074 12.85"><g transform="translate(0 -21.333)"><g transform="translate(1.224 22.557)"><g transform="translate(0 0)"><path d="M48.48,64a5.813,5.813,0,1,0,5.813,5.813A5.82,5.82,0,0,0,48.48,64Zm2.052,7.866a.307.307,0,0,1-.433,0L48.264,70.03a.308.308,0,0,1-.089-.217V66.142a.306.306,0,0,1,.612,0v3.545l1.746,1.746A.306.306,0,0,1,50.533,71.866Z" transform="translate(-42.667 -64)"/></g></g><g transform="translate(0 21.333)"><g transform="translate(0 0)"><path d="M5.139,21.973a.308.308,0,0,0-.155-.225A3.365,3.365,0,0,0,.415,26.317a.306.306,0,0,0,.225.155.336.336,0,0,0,.043,0A.308.308,0,0,0,.9,26.387l.047-.047A6.448,6.448,0,0,1,5,22.281l.047-.047A.307.307,0,0,0,5.139,21.973Z" transform="translate(0 -21.334)"/></g></g><g transform="translate(8.931 21.333)"><g transform="translate(0 0)"><path d="M313.152,21.333a3.371,3.371,0,0,0-1.618.415.306.306,0,0,0-.156.225.3.3,0,0,0,.087.259l.047.047a6.449,6.449,0,0,1,4.059,4.059l.047.047a.308.308,0,0,0,.217.089.25.25,0,0,0,.043,0,.307.307,0,0,0,.225-.155,3.365,3.365,0,0,0-2.951-4.983Z" transform="translate(-311.375 -21.333)"/></g></g></g></svg>