<svg xmlns="http://www.w3.org/2000/svg" width="51.53" height="51.53" viewBox="0 0 51.53 51.53"><defs><style>.a{fill:#1c88d0;}</style></defs><g transform="translate(-0.001 0)"><path class="a" d="M130.679,162.679A9.137,9.137,0,1,0,137.142,160,9.082,9.082,0,0,0,130.679,162.679Zm13.895,7.295a7.4,7.4,0,0,1-1.589,3.835l-3.6-3.6a2.342,2.342,0,0,0,.1-.238Zm-14.862-1.662a7.4,7.4,0,0,1,1.589-3.835l3.6,3.6a2.339,2.339,0,0,0-.1.238Zm6.839,1.408a.8.8,0,0,1-.239-.577.812.812,0,0,1,.254-.592.8.8,0,0,1,.577-.239.812.812,0,0,1,.592.254.8.8,0,0,1,.239.577.81.81,0,0,1-.255.592A.823.823,0,0,1,136.55,169.719Zm-.239-2.9a2.353,2.353,0,0,0-.228.089l-3.606-3.606a7.4,7.4,0,0,1,3.835-1.59Zm-.238,4.568a2.34,2.34,0,0,0,.238.1v5.089a7.4,7.4,0,0,1-3.835-1.589Zm1.9.1a2.352,2.352,0,0,0,.239-.1l3.6,3.6a7.4,7.4,0,0,1-3.835,1.589Zm.227-4.576c-.075-.033-.15-.063-.227-.089v-5.109a7.4,7.4,0,0,1,3.835,1.59Zm-8.489,3.064H134.8a2.352,2.352,0,0,0,.1.239l-3.6,3.6A7.4,7.4,0,0,1,129.711,169.973Zm14.862-1.662h-5.088a2.435,2.435,0,0,0-.1-.239l3.6-3.6A7.4,7.4,0,0,1,144.573,168.311Zm0,0" transform="translate(-114.701 -143.378)"/><path d="M49.868,0H48.206a1.664,1.664,0,0,0-1.662,1.662v.082l-6.771.695A1.673,1.673,0,0,0,38.232,4.1v.058H22.308A22.865,22.865,0,0,0,11.66,6.807L9.344,5.257A2.49,2.49,0,0,0,6.2,5.571L2.243,9.522a2.519,2.519,0,0,0-.307,3.148l1.3,1.937A20.927,20.927,0,0,0,0,25.764,22.354,22.354,0,0,0,3.1,37.122L1.934,38.861a2.49,2.49,0,0,0,.313,3.149L6.2,45.962a2.488,2.488,0,0,0,3.148.308l1.743-1.163a21.848,21.848,0,0,0,5.7,2.359l.413,2.059a2.5,2.5,0,0,0,2.443,2h5.586a2.5,2.5,0,0,0,2.443-2.006l.413-2.06a21.856,21.856,0,0,0,5.676-2.377l1.771,1.186a2.488,2.488,0,0,0,3.149-.313l3.952-3.952a2.49,2.49,0,0,0,.308-3.148l-1.185-1.769a22.206,22.206,0,0,0,1.689-19.2l3.093.316v.081a1.664,1.664,0,0,0,1.662,1.662h1.662a1.664,1.664,0,0,0,1.662-1.662V1.662A1.664,1.664,0,0,0,49.868,0ZM3.422,10.694,7.366,6.75a.837.837,0,0,1,1.057-.109l1.632,1.092A22.2,22.2,0,0,0,4.24,13.126l-.921-1.377a.837.837,0,0,1,.1-1.056ZM8.427,44.885a.838.838,0,0,1-1.056-.1L3.427,40.839a.837.837,0,0,1-.108-1.058l.751-1.127a22.545,22.545,0,0,0,5.48,5.481Zm16.806,4.982H19.648a.835.835,0,0,1-.814-.672l-.267-1.329a22.365,22.365,0,0,0,3.887.338q.7,0,1.4-.043a21.737,21.737,0,0,0,2.463-.312l-.269,1.344a.838.838,0,0,1-.815.672Zm16.226-9.032-3.943,3.944a.836.836,0,0,1-1.056.109L35.3,44.112a22.888,22.888,0,0,0,5.487-5.494l.776,1.161a.837.837,0,0,1-.1,1.056Zm1.752-14.47a20.536,20.536,0,0,1-3.133,10.313,21.159,21.159,0,0,1-6.72,6.726,20.478,20.478,0,0,1-9.606,3.1,20.783,20.783,0,0,1-6.064-.513,20.257,20.257,0,0,1-6.2-2.565A20.768,20.768,0,0,1,1.663,25.764,19.35,19.35,0,0,1,4.917,15.052a20.519,20.519,0,0,1,6.946-6.475A21.219,21.219,0,0,1,22.308,5.817h12.6V9.142H36.57V5.817h1.662v8.311H36.57V10.8H34.908v3.324H26.893a12.239,12.239,0,0,0-4.452-.831,12.471,12.471,0,1,0,7.478,2.493h8.314v.058a1.669,1.669,0,0,0,1.518,1.658l1.827.187a20.458,20.458,0,0,1,1.633,8.67Zm-9.965-.6a10.8,10.8,0,1,1-10.8-10.8,10.585,10.585,0,0,1,4.006.772A10.744,10.744,0,0,1,33.245,25.764Zm6.649-9.915V4.986l.026-.894,6.623-.679V16.533Zm9.973,2.435H48.206V1.662h1.662Zm0,0"/><path d="M352,226.493A2.493,2.493,0,1,0,354.493,224,2.5,2.5,0,0,0,352,226.493Zm3.325,0a.831.831,0,1,1-.831-.831A.832.832,0,0,1,355.325,226.493Zm0,0" transform="translate(-315.43 -200.729)"/><path d="M55.293,148.488l-1.383-.922a17.522,17.522,0,0,0-.918,1.554l1.472.773a15.3,15.3,0,0,1,.829-1.405Zm0,0" transform="translate(-47.486 -132.236)"/><path d="M33.662,183.624a17.347,17.347,0,0,1,1.381-6.815l-1.531-.649a19.127,19.127,0,0,0,17.6,26.579v-1.662A17.474,17.474,0,0,1,33.662,183.624Zm0,0" transform="translate(-28.675 -157.859)"/></g></svg>